HIERARCHY
ROOT Hips
{
	OFFSET 0.000000 0.000000 0.000000
	CHANNELS 6 Xposition Yposition Zposition Zrotation Yrotation Xrotation 
	JOINT LHipJoint
	{
		OFFSET 0.000000 0.000000 0.000000
		CHANNELS 3 Zrotation Yrotation Xrotation
		JOINT LeftUpLeg
		{
			OFFSET 1.363060 -1.794630 0.839290
			CHANNELS 3 Zrotation Yrotation Xrotation
			JOINT LeftLeg
			{
				OFFSET 2.448110 -6.726130 0.000000
				CHANNELS 3 Zrotation Yrotation Xrotation
				JOINT LeftFoot
				{
					OFFSET 2.562200 -7.039590 0.000000
					CHANNELS 3 Zrotation Yrotation Xrotation
					JOINT LeftToeBase
					{
						OFFSET 0.157640 -0.433110 2.322550
						CHANNELS 3 Zrotation Yrotation Xrotation
						End Site
						{
							OFFSET 0.000000 0.000000 0.000000
						}
					}
				}
			}
		}
	}
	JOINT RHipJoint
	{
		OFFSET 0.000000 0.000000 0.000000
		CHANNELS 3 Zrotation Yrotation Xrotation
		JOINT RightUpLeg
		{
			OFFSET -1.305520 -1.794630 0.839290
			CHANNELS 3 Zrotation Yrotation Xrotation
			JOINT RightLeg
			{
				OFFSET -2.542530 -6.985550 0.000000
				CHANNELS 3 Zrotation Yrotation Xrotation
				JOINT RightFoot
				{
					OFFSET -2.568260 -7.056230 0.000000
					CHANNELS 3 Zrotation Yrotation Xrotation
					JOINT RightToeBase
					{
						OFFSET -0.164730 -0.452590 2.363150
						CHANNELS 3 Zrotation Yrotation Xrotation
						End Site
						{
							OFFSET 0.000000 0.000000 0.000000
						}
					}
				}
			}
		}
	}
}
MOTION
Frames: 13
Frame Time: 0.008333
-1.511899 16.813354 -2.252290 23.436205 84.771053 45.247542 -9.736264 0.458466 3.586452 -9.107674 1.803438 -46.819495 -2.910856 0.729055 25.611398 -0.343104 -3.778807 -2.570639 -0.145400 0.000001 -36.866899 10.940515 -2.930929 -0.695772 4.828929 -11.091872 -18.720291 -0.077619 -2.811141 49.479696 -3.463292 -18.571597 -6.246120 -1.060400 0.000000 -22.105900
-1.320395 16.758658 -2.237191 24.571750 84.329006 46.415534 -9.678056 0.487773 3.502102 -9.392874 1.456901 -47.285128 -2.745305 0.947594 28.614429 -0.160109 -2.865665 -4.016002 -0.043300 0.000001 -35.193900 11.122732 -2.776587 -0.629957 3.934919 -10.771905 -19.731402 -0.223540 -2.964664 51.967823 -3.597354 -19.225914 -7.336200 -0.724300 0.000000 -18.951800
-1.132779 16.717293 -2.217875 25.031802 83.747913 46.883121 -9.626517 0.519036 3.401271 -9.653352 1.109287 -47.305940 -2.600400 1.094983 30.984743 0.053833 -1.773792 -5.488982 0.024800 -0.000001 -34.038800 11.287830 -2.616729 -0.543770 3.052900 -10.217740 -20.737439 -0.371517 -3.116945 54.294076 -3.625565 -19.333294 -8.095829 -0.456300 -0.000000 -16.852201
-0.948269 16.690059 -2.194337 24.822612 83.039139 46.649434 -9.583237 0.554969 3.281974 -9.891242 0.819377 -46.910622 -2.488807 1.175040 32.683082 0.288150 -0.575281 -6.950930 0.043300 -0.000000 -33.485000 11.431285 -2.458031 -0.438174 2.215720 -9.461243 -21.733183 -0.518640 -3.262898 56.424672 -3.557242 -18.935300 -8.544107 -0.276800 -0.000000 -15.726800
-0.765913 16.677016 -2.167385 23.941611 82.221154 45.707035 -9.556087 0.595314 3.144335 -10.084121 0.644877 -46.154717 -2.413366 1.197708 33.733459 0.531680 0.659782 -8.363262 0.006100 0.000000 -33.504401 11.542965 -2.307285 -0.314652 1.474658 -8.535875 -22.710286 -0.661613 -3.395062 58.325479 -3.408184 -18.107905 -8.702765 -0.188000 -0.000000 -15.532001
-0.584817 16.677454 -2.137399 22.602359 81.315284 44.262059 -9.541534 0.640879 2.988348 -10.230516 0.610104 -45.080638 -2.371552 1.170879 34.181434 0.774629 1.884102 -9.675786 -0.082700 0.000000 -33.984600 11.628032 -2.167178 -0.179184 0.842960 -7.506310 -23.660600 -0.795374 -3.510866 59.971409 -3.196330 -16.937977 -8.605101 -0.174300 0.000000 -16.214100
-0.404038 16.690201 -2.104972 20.978276 80.343764 42.485343 -9.539481 0.692344 2.816265 -10.326045 0.731680 -43.740373 -2.356977 1.104250 34.099674 1.005819 3.051520 -10.833163 -0.210300 -0.000000 -34.771200 11.688784 -2.038860 -0.037765 0.337520 -6.436781 -24.577328 -0.915178 -3.607699 61.344340 -2.944120 -15.535779 -8.297117 -0.210700 0.000000 -17.655400
-0.222687 16.713665 -2.070606 19.243140 79.331047 40.551932 -9.549263 0.751312 2.631679 -10.375433 1.012806 -42.185992 -2.362056 1.007491 33.572785 1.213691 4.121665 -11.777801 -0.356800 0.000000 -35.701600 11.728987 -1.921838 0.103285 -0.034452 -5.393664 -25.457460 -1.016470 -3.684935 62.437360 -2.675107 -14.018523 -7.842572 -0.268701 0.000000 -19.641800
-0.040011 16.746128 -2.034624 17.549208 78.303630 38.619420 -9.570218 0.820405 2.439313 -10.391797 1.445447 -40.469550 -2.379738 0.890179 32.690255 1.387083 5.058819 -12.456470 -0.497400 0.000000 -36.640200 11.752487 -1.814815 0.237754 -0.272991 -4.439969 -26.301561 -1.095314 -3.743550 63.253405 -2.410873 -12.497677 -7.317340 -0.323900 -0.000000 -21.899700
0.144553 16.785823 -1.997321 15.988376 77.290255 36.790544 -9.604056 0.902656 2.245269 -10.387174 2.019235 -38.650611 -2.404442 0.762447 31.545539 1.516159 5.829725 -12.829282 -0.607499 0.000000 -37.501600 11.759998 -1.716755 0.361799 -0.374815 -3.623262 -27.115930 -1.149193 -3.784330 63.803767 -2.169022 -11.071603 -6.796639 -0.362200 0.000000 -24.180199
0.331429 16.831062 -1.958811 14.621510 76.319834 35.140408 -9.652113 1.001326 2.055877 -10.375394 2.718586 -36.787870 -2.432740 0.633498 30.226669 1.594421 6.409577 -12.875777 -0.667000 -0.000001 -38.251800 11.751689 -1.626741 0.472924 -0.340667 -2.978145 -27.909156 -1.176773 -3.808346 64.103788 -1.961245 -9.814437 -6.345507 -0.379400 -0.000000 -26.319400
0.520748 16.880366 -1.919079 13.481117 75.419280 33.715681 -9.715052 1.118887 1.877073 -10.367612 3.523917 -34.935488 -2.463175 0.510977 28.811432 1.619629 6.783830 -12.598889 -0.665200 0.000000 -38.895700 11.727110 -1.543956 0.569802 -0.173695 -2.523906 -28.690098 -1.177751 -3.816608 64.169264 -1.793505 -8.772988 -6.012951 -0.378300 0.000000 -28.244800
0.712516 16.932458 -1.878108 12.564570 74.611717 32.530913 -9.793777 1.256339 1.715623 -10.366820 4.413096 -33.147344 -2.495439 0.400838 27.368303 1.594163 6.949282 -12.025771 -0.602601 0.000000 -39.462100 11.684166 -1.468037 0.653730 0.126096 -2.262209 -29.471000 -1.152539 -3.809215 64.014542 -1.667707 -7.970571 -5.831676 -0.364600 -0.000000 -29.933600
